<mxfile host="app.diagrams.net" agent="Mozilla/5.0 (Windows NT 10.0; Win64; x64) AppleWebKit/537.36 (KHTML, like Gecko) Chrome/131.0.0.0 Safari/537.36 Edg/131.0.0.0" version="26.0.4">
  <diagram name="Page-1" id="eLMhKg90Q58_M57V-YQM">
    <mxGraphModel dx="1044" dy="558" grid="1" gridSize="10" guides="1" tooltips="1" connect="1" arrows="1" fold="1" page="1" pageScale="1" pageWidth="850" pageHeight="1100" math="0" shadow="0">
      <root>
        <mxCell id="0" />
        <mxCell id="1" parent="0" />
        <mxCell id="XipXFmqYy9CJ50gtXuYF-2" value="Đăng tin tuyển dụng" style="ellipse;whiteSpace=wrap;html=1;" vertex="1" parent="1">
          <mxGeometry x="321" y="220" width="140" height="70" as="geometry" />
        </mxCell>
        <mxCell id="XipXFmqYy9CJ50gtXuYF-3" value="Thêm" style="ellipse;whiteSpace=wrap;html=1;" vertex="1" parent="1">
          <mxGeometry x="390" y="90" width="140" height="70" as="geometry" />
        </mxCell>
        <mxCell id="XipXFmqYy9CJ50gtXuYF-4" value="&amp;lt;&amp;lt;include&amp;gt;&amp;gt;" style="edgeStyle=none;html=1;endArrow=open;verticalAlign=bottom;dashed=1;labelBackgroundColor=none;rounded=0;entryX=0.5;entryY=0;entryDx=0;entryDy=0;exitX=0.5;exitY=1;exitDx=0;exitDy=0;" edge="1" parent="1" source="XipXFmqYy9CJ50gtXuYF-3" target="XipXFmqYy9CJ50gtXuYF-2">
          <mxGeometry width="160" relative="1" as="geometry">
            <mxPoint x="531" y="180" as="sourcePoint" />
            <mxPoint x="391" y="220" as="targetPoint" />
          </mxGeometry>
        </mxCell>
        <mxCell id="XipXFmqYy9CJ50gtXuYF-5" value="nhà tuyển dụng" style="shape=umlActor;html=1;verticalLabelPosition=bottom;verticalAlign=top;align=center;" vertex="1" parent="1">
          <mxGeometry x="200" y="225" width="30" height="60" as="geometry" />
        </mxCell>
        <mxCell id="XipXFmqYy9CJ50gtXuYF-6" value="" style="edgeStyle=none;html=1;endArrow=block;endFill=0;endSize=12;verticalAlign=bottom;rounded=0;exitX=0.5;exitY=0.5;exitDx=0;exitDy=0;exitPerimeter=0;entryX=0;entryY=0.5;entryDx=0;entryDy=0;" edge="1" parent="1" source="XipXFmqYy9CJ50gtXuYF-5" target="XipXFmqYy9CJ50gtXuYF-2">
          <mxGeometry width="160" relative="1" as="geometry">
            <mxPoint x="226" y="275" as="sourcePoint" />
            <mxPoint x="331" y="280" as="targetPoint" />
          </mxGeometry>
        </mxCell>
        <mxCell id="XipXFmqYy9CJ50gtXuYF-8" value="Sửa" style="ellipse;whiteSpace=wrap;html=1;" vertex="1" parent="1">
          <mxGeometry x="540" y="160" width="140" height="70" as="geometry" />
        </mxCell>
        <mxCell id="XipXFmqYy9CJ50gtXuYF-9" value="Xem chi tiết trạng thái&amp;nbsp; bài đăng" style="ellipse;whiteSpace=wrap;html=1;" vertex="1" parent="1">
          <mxGeometry x="321" y="370" width="140" height="70" as="geometry" />
        </mxCell>
        <mxCell id="XipXFmqYy9CJ50gtXuYF-11" value="&amp;lt;&amp;lt;extend&amp;gt;&amp;gt;" style="edgeStyle=none;html=1;startArrow=open;endArrow=none;startSize=12;verticalAlign=bottom;dashed=1;labelBackgroundColor=none;rounded=0;entryX=0.5;entryY=0;entryDx=0;entryDy=0;exitX=0.5;exitY=1;exitDx=0;exitDy=0;" edge="1" parent="1" source="XipXFmqYy9CJ50gtXuYF-2" target="XipXFmqYy9CJ50gtXuYF-9">
          <mxGeometry width="160" relative="1" as="geometry">
            <mxPoint x="820" y="160" as="sourcePoint" />
            <mxPoint x="735" y="194" as="targetPoint" />
          </mxGeometry>
        </mxCell>
        <mxCell id="XipXFmqYy9CJ50gtXuYF-13" value="Xóa" style="ellipse;whiteSpace=wrap;html=1;" vertex="1" parent="1">
          <mxGeometry x="540" y="260" width="140" height="70" as="geometry" />
        </mxCell>
        <mxCell id="XipXFmqYy9CJ50gtXuYF-14" value="&amp;lt;&amp;lt;include&amp;gt;&amp;gt;" style="edgeStyle=none;html=1;endArrow=open;verticalAlign=bottom;dashed=1;labelBackgroundColor=none;rounded=0;entryX=1;entryY=0;entryDx=0;entryDy=0;exitX=0.029;exitY=0.611;exitDx=0;exitDy=0;exitPerimeter=0;" edge="1" parent="1" source="XipXFmqYy9CJ50gtXuYF-8" target="XipXFmqYy9CJ50gtXuYF-2">
          <mxGeometry width="160" relative="1" as="geometry">
            <mxPoint x="470" y="170" as="sourcePoint" />
            <mxPoint x="401" y="230" as="targetPoint" />
          </mxGeometry>
        </mxCell>
        <mxCell id="XipXFmqYy9CJ50gtXuYF-15" value="&amp;lt;&amp;lt;include&amp;gt;&amp;gt;" style="edgeStyle=none;html=1;endArrow=open;verticalAlign=bottom;dashed=1;labelBackgroundColor=none;rounded=0;entryX=1.004;entryY=0.611;entryDx=0;entryDy=0;exitX=0;exitY=0.5;exitDx=0;exitDy=0;entryPerimeter=0;" edge="1" parent="1" source="XipXFmqYy9CJ50gtXuYF-13" target="XipXFmqYy9CJ50gtXuYF-2">
          <mxGeometry width="160" relative="1" as="geometry">
            <mxPoint x="554" y="213" as="sourcePoint" />
            <mxPoint x="450" y="240" as="targetPoint" />
          </mxGeometry>
        </mxCell>
      </root>
    </mxGraphModel>
  </diagram>
</mxfile>
